<svg width="421" height="296" viewBox="0 0 421 296" fill="none" xmlns="http://www.w3.org/2000/svg">
<path d="M415.114 294.18L402.115 254.953C402.115 254.953 416.413 269.25 416.413 280.982L413.846 253.853C413.846 253.853 421.178 263.751 420.445 278.782C419.712 293.813 415.114 294.18 415.114 294.18Z" fill="#E6E6E6"/>
<path d="M135.971 258.462L123.285 220.178C123.285 220.178 137.238 234.132 137.238 245.581L134.734 219.104C134.734 219.104 141.89 228.765 141.174 243.434C140.459 258.104 135.971 258.462 135.971 258.462Z" fill="#E6E6E6"/>
<path d="M333.977 276.128C333.999 301.312 284.05 293.565 222.901 293.618C161.751 293.671 112.558 301.503 112.536 276.319C112.514 251.135 162.445 245.615 223.594 245.562C284.744 245.509 333.956 250.944 333.977 276.128Z" fill="#E6E6E6"/>
<path d="M351.418 293.604H0V294.756H351.418V293.604Z" fill="#3F3D56"/>
<path d="M291.122 242.117H283.128L279.323 211.281H291.122V242.117Z" fill="#A0616A"/>
<path d="M276.529 239.833H292.835V249.541H267.71V248.653C267.71 246.314 268.639 244.07 270.293 242.416C271.947 240.762 274.19 239.833 276.529 239.833Z" fill="#2F2E41"/>
<path d="M349.884 287.629H341.889L338.085 256.793H349.884V287.629Z" fill="#A0616A"/>
<path d="M335.291 285.345H351.597V295.052H326.472V294.164C326.472 291.825 327.401 289.582 329.055 287.928C330.709 286.274 332.952 285.345 335.291 285.345Z" fill="#2F2E41"/>
<path d="M386.759 196.022C387.312 195.351 387.711 194.568 387.928 193.727C388.145 192.886 388.175 192.007 388.016 191.153C387.857 190.299 387.513 189.49 387.007 188.783C386.502 188.076 385.848 187.489 385.091 187.063L366.523 111.426L354.651 116.533L376.736 189.668C376.104 190.987 375.978 192.493 376.381 193.899C376.785 195.305 377.69 196.514 378.925 197.297C380.161 198.08 381.641 198.383 383.085 198.148C384.528 197.913 385.836 197.156 386.759 196.022Z" fill="#A0616A"/>
<path d="M372.278 43.1575C371.615 42.4648 370.809 41.9258 369.915 41.5784C369.022 41.2311 368.063 41.0839 367.106 41.1472C366.15 41.2105 365.219 41.4828 364.379 41.9448C363.539 42.4068 362.81 43.0474 362.245 43.8214L333.506 47.1208L337.878 58.2057L364.014 53.3141C365.377 54.1781 367.01 54.512 368.603 54.2525C370.196 53.993 371.639 53.1582 372.657 51.9063C373.676 50.6543 374.2 49.0722 374.13 47.4598C374.06 45.8473 373.401 44.3166 372.278 43.1575Z" fill="#A0616A"/>
<path d="M324.918 188.178L337.459 282.297L353.067 279.084C353.067 279.084 350.772 210.539 358.576 202.276C366.38 194.012 348.538 179.537 348.538 179.537L324.918 188.178Z" fill="#2F2E41"/>
<path d="M330.103 162.253L324.342 170.895C324.342 170.895 279.983 152.46 279.983 181.841C279.983 211.221 277.444 231.16 276.526 232.537C275.608 233.914 287.148 237.488 292.657 236.57C292.657 236.57 299.453 189.204 298.994 186.449C298.994 186.449 342.508 207.784 350.772 205.948C359.035 204.112 360.987 197.611 362.364 193.939C363.741 190.266 361.788 161.101 361.788 161.101L334.245 152.696L330.103 162.253Z" fill="#2F2E41"/>
<path d="M330.88 110.37L329.238 108.4C329.238 108.4 310.847 67.0199 318.072 55.8539C325.297 44.6878 356.825 43.0458 357.81 43.7026C358.795 44.3594 355.457 52.8872 357.756 56.8281C357.756 56.8281 333.333 62.1232 331.691 62.78C330.048 63.4368 344.345 87.7098 344.345 87.7098L342.703 102.488L330.88 110.37Z" fill="#CCCCCC"/>
<path d="M363.065 90.0084C363.065 90.0084 345.987 91.9788 345.331 91.9788C344.674 91.9788 344.345 87.7095 344.345 87.7095L329.238 108.399C329.238 108.399 321.796 168.423 323.766 167.438C325.737 166.453 362.08 172.111 362.408 169.484C362.736 166.857 362.08 153.72 363.065 153.063C364.05 152.407 380.142 111.684 380.142 111.684C380.142 111.684 378.5 103.145 372.917 100.189C367.334 97.2334 363.065 90.0084 363.065 90.0084Z" fill="#CCCCCC"/>
<path d="M374.887 106.101L380.142 111.684C380.142 111.684 387.949 175.838 383.68 177.808C379.411 179.779 371.006 179.536 371.006 179.536L362.736 149.123L374.887 106.101Z" fill="#CCCCCC"/>
<path d="M346.654 85.9458C355.002 85.9458 361.77 79.1781 361.77 70.8297C361.77 62.4813 355.002 55.7137 346.654 55.7137C338.306 55.7137 331.538 62.4813 331.538 70.8297C331.538 79.1781 338.306 85.9458 346.654 85.9458Z" fill="#A0616A"/>
<path d="M343.107 73.1887C342.903 70.0522 338.946 69.9447 335.803 69.915C332.66 69.8853 328.902 69.9975 327.124 67.4059C325.948 65.6931 326.173 63.3154 327.144 61.4791C328.115 59.6428 329.712 58.2305 331.283 56.8718C335.34 53.3641 339.52 49.8841 344.39 47.6389C349.261 45.3938 354.968 44.4865 360.019 46.2889C366.223 48.5028 374.611 59.8996 375.335 66.4475C376.059 72.9953 373.443 79.6703 369.031 84.5633C364.62 89.4563 354.524 87.4821 348.171 89.2228C352.033 83.7558 349.487 73.8222 343.299 71.2693L343.107 73.1887Z" fill="#2F2E41"/>
<path d="M208.386 268.717C228.428 268.717 244.674 252.47 244.674 232.429C244.674 212.388 228.428 196.141 208.386 196.141C188.345 196.141 172.099 212.388 172.099 232.429C172.099 252.47 188.345 268.717 208.386 268.717Z" fill="#617AFF"/>
<path d="M184.153 193.562C179.123 193.563 174.202 192.105 169.984 189.367C165.766 186.628 162.432 182.725 160.386 178.131L102.803 48.4566C100.896 44.1611 99.8873 39.5209 99.8391 34.8213C99.7909 30.1216 100.704 25.4617 102.523 21.128C104.342 16.7943 107.028 12.8785 110.417 9.62108C113.805 6.3637 117.823 3.83362 122.225 2.18636C126.627 0.53911 131.319 -0.190521 136.013 0.0423292C140.707 0.275179 145.304 1.46559 149.521 3.54038C153.738 5.61517 157.487 8.53052 160.536 12.1072C163.585 15.6839 165.87 19.8464 167.251 24.3388L208.948 159.959C210.141 163.841 210.408 167.948 209.726 171.952C209.045 175.956 207.433 179.744 205.022 183.012C202.611 186.28 199.466 188.937 195.842 190.769C192.218 192.601 188.214 193.558 184.153 193.562Z" fill="#617AFF"/>
</svg>
