<svg width="402" height="347" viewBox="0 0 402 347" fill="none" xmlns="http://www.w3.org/2000/svg">
<path d="M386.528 323.949L383.502 286.751L374.855 326.087C374.855 326.087 374.969 336.011 375.255 346.882H386.334C386.707 334.455 386.528 323.949 386.528 323.949Z" fill="#F2F2F2"/>
<path d="M230.918 337.178C230.067 333.7 229.465 330.166 229.119 326.604L227.909 313.736C227.4 310.212 226.877 307.107 226.351 304.366C222.496 284.824 218.517 284.117 218.517 284.117C218.346 284.247 218.18 284.39 218.009 284.538C217.541 284.959 217.105 285.413 216.706 285.898C210.368 293.864 206.068 314.525 203.809 328.231C202.562 335.803 201.941 341.251 201.941 341.251C201.941 341.251 202.505 343.571 203.276 346.882H232.197C232.087 343.614 231.659 340.365 230.918 337.178Z" fill="#F2F2F2"/>
<path d="M94.3134 132.845C126.893 132.845 153.305 109.077 153.305 79.7575C153.305 50.4383 126.893 26.6704 94.3134 26.6704C61.7334 26.6704 35.3221 50.4383 35.3221 79.7575C35.3221 109.077 61.7334 132.845 94.3134 132.845Z" fill="#3F3D56"/>
<path d="M191.494 253.235C191.494 253.235 211.365 239.725 211.365 233.584C211.365 227.443 225.026 187.528 232.477 205.336C239.929 223.145 221.921 248.322 221.921 248.322C221.921 248.322 202.05 283.938 190.252 290.079C178.454 296.22 168.518 292.536 168.518 292.536V275.955L179.871 259.34C181.155 257.46 182.887 255.92 184.913 254.856C186.94 253.791 189.199 253.235 191.494 253.235Z" fill="#FFB9B9"/>
<path d="M135.013 159.18C135.013 159.18 164.792 168.492 167.897 172.79C171.002 177.089 172.244 169.72 180.937 197.968C189.631 226.215 191.804 253.542 191.804 253.542C191.804 253.542 170.381 260.604 172.865 288.237C175.349 315.871 169.139 345.96 169.139 345.96H161.387L144.301 293.764L164.792 214.548C164.792 214.548 135.662 165.834 135.013 159.18Z" fill="#575A89"/>
<path d="M125.051 133.489C145.628 133.489 162.309 116.994 162.309 96.6448C162.309 76.296 145.628 59.8001 125.051 59.8001C104.474 59.8001 87.7933 76.296 87.7933 96.6448C87.7933 116.994 104.474 133.489 125.051 133.489Z" fill="#FFB9B9"/>
<path d="M139.333 124.279C139.333 124.279 128.777 158.667 138.091 163.58C147.406 168.492 157.962 190.599 157.962 190.599L141.817 208.407H104.559L87.7933 189.985L80.9627 158.667L90.2772 151.298C90.2772 151.298 100.213 126.735 100.213 113.839C100.213 100.944 139.333 124.279 139.333 124.279Z" fill="#FFB9B9"/>
<path d="M142.438 162.351C142.438 162.351 134.986 160.509 139.333 167.878C143.68 175.247 148.027 188.757 132.503 189.371C116.979 189.985 101.454 182.002 96.4868 165.422C91.5191 148.842 89.6562 150.07 87.7933 150.684C85.9304 151.298 66.0597 171.563 66.0597 171.563L72.8902 209.635L75.3741 345.961H166.035C166.035 345.961 169.76 306.66 163.551 297.449C157.341 288.238 169.139 264.903 169.139 264.903C169.139 264.903 179.696 248.937 171.623 218.233C163.551 187.529 145.543 162.351 142.438 162.351Z" fill="#617AFF"/>
<path d="M92.1401 150.684C92.1401 150.684 82.8256 146.385 74.7531 153.754C66.6806 161.123 48.6727 167.264 48.6727 170.948C48.6727 174.633 64.1968 279.64 53.6404 298.063C43.0841 316.485 31.9068 345.961 31.9068 345.961H83.7033C83.7033 345.961 92.1401 315.257 100.834 298.677C109.527 282.097 108.906 235.427 106.422 221.303C103.938 207.179 92.1401 150.684 92.1401 150.684Z" fill="#575A89"/>
<path d="M37.4954 313.414L40.5195 345.961H74.0806L71.0274 305.431L37.4954 313.414Z" fill="#FFB9B9"/>
<path d="M190.252 296.22L198.325 345.961H377.782L393.307 245.866L190.252 296.22Z" fill="#3F3D56"/>
<path d="M400.137 239.111L402 248.322L169.76 303.589V295.606L400.137 239.111Z" fill="#3F3D56"/>
<path d="M302.025 255.691L300.783 266.13L314.444 264.288L308.856 253.849L302.025 255.691Z" fill="#3F3D56"/>
<path d="M226.889 150.07C226.889 150.07 254.211 148.227 261.663 169.106C269.114 189.985 286.501 227.444 293.332 232.97C300.162 238.497 307.614 253.235 306.372 258.148" stroke="#3F3D56" stroke-width="5" stroke-miterlimit="10"/>
<path d="M230.925 149.763C230.925 152.645 227.825 154.982 222.853 154.982C217.88 154.982 215.401 152.645 215.401 149.763C215.401 146.88 217.88 144.543 222.853 144.543C227.825 144.543 230.925 146.88 230.925 149.763Z" fill="#262B95"/>
<path d="M184.974 245.559C184.974 245.559 189.631 226.215 180.938 197.968C172.244 169.72 171.002 177.089 167.898 172.79C164.793 168.492 135.014 159.18 135.014 159.18C135.227 161.367 138.515 168.095 142.835 176.143C142.057 173.242 140.879 170.461 139.333 167.878C134.987 160.509 142.438 162.351 142.438 162.351C145.543 162.351 163.551 187.528 171.623 218.232C179.696 248.936 169.139 264.902 169.139 264.902L184.974 245.559Z" fill="#575A89"/>
<path d="M135.297 158.974C135.297 158.974 138.973 172.764 142.103 174.773C145.232 176.782 163.793 195.851 163.793 195.851L161.377 180.467L151.442 165.729L148.799 163.832L135.297 158.974Z" fill="#575A89"/>
<path opacity="0.1" d="M52.7089 201.345L53.5747 169.72C53.5747 169.72 33.1486 178.317 31.2857 215.162C29.4228 252.007 34.3905 321.398 41.2211 322.012C48.0517 322.626 80.3417 315.257 80.3417 315.257C80.3417 315.257 85.3094 226.215 83.4465 214.548C81.5836 202.88 52.7089 201.345 52.7089 201.345Z" fill="black"/>
<path d="M54.2613 169.72H49.228C49.228 169.72 28.8019 178.317 26.939 215.162C25.0761 252.007 30.0438 321.398 36.8744 322.012C43.705 322.626 75.995 315.257 75.995 315.257C75.995 315.257 80.9627 226.215 79.0998 214.548C77.2369 202.88 54.2613 169.72 54.2613 169.72Z" fill="#575A89"/>
<path d="M80.6523 129.498C101.915 129.498 119.152 110.39 119.152 86.8195C119.152 63.2489 101.915 44.1411 80.6523 44.1411C59.3895 44.1411 42.1526 63.2489 42.1526 86.8195C42.1526 110.39 59.3895 129.498 80.6523 129.498Z" fill="#3F3D56"/>
<path d="M108.285 121.515C112.572 121.515 116.047 116.429 116.047 110.155C116.047 103.88 112.572 98.7941 108.285 98.7941C103.998 98.7941 100.523 103.88 100.523 110.155C100.523 116.429 103.998 121.515 108.285 121.515Z" fill="#FFB9B9"/>
<path d="M42.1526 75.4591C59.643 75.4591 73.8217 61.4375 73.8217 44.1411C73.8217 26.8446 59.643 12.8231 42.1526 12.8231C24.6623 12.8231 10.4836 26.8446 10.4836 44.1411C10.4836 61.4375 24.6623 75.4591 42.1526 75.4591Z" fill="#3F3D56"/>
<path d="M46.246 69.2306C41.6453 71.5456 36.5421 72.7132 31.3808 72.6319C26.2195 72.5505 21.1565 71.2226 16.6328 68.7638C12.1091 66.305 8.26173 62.7899 5.42583 58.5245C2.58992 54.2591 0.851424 49.3728 0.361723 44.291C-0.31455 48.6776 -0.0403987 53.1562 1.16601 57.4301C2.37242 61.704 4.48354 65.6756 7.35946 69.0816C10.2354 72.4876 13.8104 75.2503 17.8477 77.1865C21.885 79.1228 26.2923 80.1885 30.7775 80.313C35.2628 80.4374 39.7236 79.6178 43.8643 77.9084C48.005 76.199 51.7311 73.6389 54.7956 70.3977C57.8601 67.1566 60.1931 63.3083 61.6399 59.1081C63.0867 54.9078 63.6144 50.4514 63.1879 46.0342C62.4344 50.9549 60.5041 55.6267 57.5574 59.6612C54.6107 63.6958 50.7328 66.9765 46.246 69.2306Z" fill="#3F3D56"/>
<path d="M24.7787 49.3175C21.5986 45.2965 19.4608 40.5676 18.5513 35.5427C17.6419 30.5178 17.9883 25.3492 19.5606 20.487C21.1329 15.6248 23.8833 11.2164 27.5723 7.64568C31.2613 4.07497 35.777 1.45023 40.7263 0C36.2432 0.18524 31.8511 1.31056 27.8411 3.3014C23.831 5.29224 20.2946 8.10314 17.4662 11.5478C14.6377 14.9925 12.5819 18.9923 11.4348 23.2821C10.2878 27.5719 10.0757 32.0538 10.8127 36.4309C11.5497 40.8079 13.219 44.98 15.7098 48.6708C18.2006 52.3616 21.4562 55.4867 25.2608 57.8391C29.0653 60.1916 33.332 61.7175 37.778 62.3159C42.2241 62.9143 46.7479 62.5714 51.0498 61.31C46.0218 61.5228 41.0151 60.5457 36.4458 58.4598C31.8765 56.374 27.8766 53.2397 24.7787 49.3175Z" fill="#3F3D56"/>
<path d="M127.224 84.0562C139.571 84.0562 149.579 76.908 149.579 68.0902C149.579 59.2724 139.571 52.1241 127.224 52.1241C114.878 52.1241 104.87 59.2724 104.87 68.0902C104.87 76.908 114.878 84.0562 127.224 84.0562Z" fill="#3F3D56"/>
</svg>
