<svg width="134" height="116" viewBox="0 0 134 116" fill="none" xmlns="http://www.w3.org/2000/svg">
<g clip-path="url(#clip0_67_223)">
<rect x="65.6106" y="43.5098" width="75.6478" height="6.37064" rx="3.18532" transform="rotate(-150.148 65.6106 43.5098)" fill="#617AFF"/>
<rect x="69.0537" y="39.7601" width="65.8109" height="6.37064" transform="rotate(-150.148 69.0537 39.7601)" fill="#617AFF"/>
<rect x="65.3825" y="37.9951" width="75.6514" height="6.37064" rx="3.18532" transform="rotate(-30.1482 65.3825 37.9951)" fill="#617AFF"/>
<rect x="65.8109" y="44.8048" width="65.8109" height="6.37064" transform="rotate(-30.1482 65.8109 44.8048)" fill="#617AFF"/>
<rect x="63.5621" y="115.564" width="76.3058" height="7.44447" rx="3.72223" transform="rotate(-90.1482 63.5621 115.564)" fill="#617AFF"/>
<rect x="56.5797" y="103.436" width="65.8109" height="7.44447" transform="rotate(-90.1482 56.5797 103.436)" fill="#617AFF"/>
<ellipse cx="72.8032" cy="9.34715" rx="9.49606" ry="8.9685" fill="#617AFF"/>
<ellipse cx="32.7087" cy="49.4416" rx="9.49606" ry="8.9685" fill="#617AFF"/>
<ellipse cx="91.7953" cy="61.0479" rx="9.49606" ry="8.9685" fill="#617AFF"/>
</g>
<defs>
<clipPath id="clip0_67_223">
<rect width="134" height="115.564" fill="white"/>
</clipPath>
</defs>
</svg>
