<svg width="41" height="41" viewBox="0 0 41 41" fill="none" xmlns="http://www.w3.org/2000/svg">
<path d="M28.449 31.3401H21.7823L14.3656 36.2734C14.1153 36.4402 13.8244 36.536 13.524 36.5505C13.2235 36.565 12.9247 36.4976 12.6596 36.3556C12.3944 36.2136 12.1727 36.0023 12.0182 35.7442C11.8637 35.4861 11.7822 35.1909 11.7823 34.8901V31.3401C6.78231 31.3401 3.44897 28.0067 3.44897 23.0067V13.0067C3.44897 8.00673 6.78231 4.6734 11.7823 4.6734H28.449C33.449 4.6734 36.7823 8.00673 36.7823 13.0067V23.0067C36.7823 28.0067 33.449 31.3401 28.449 31.3401Z" stroke="#617AFF" stroke-width="2" stroke-miterlimit="10" stroke-linecap="round" stroke-linejoin="round"/>
<path d="M20.1158 19.5567V19.2067C20.1158 18.0734 20.8158 17.4734 21.5158 16.9901C22.1991 16.5234 22.8825 15.9234 22.8825 14.8234C22.8825 13.2901 21.6491 12.0567 20.1158 12.0567C18.5825 12.0567 17.3491 13.2901 17.3491 14.8234M20.1075 23.5401H20.1241" stroke="#617AFF" stroke-width="2" stroke-linecap="round" stroke-linejoin="round"/>
</svg>
