<svg width="411" height="387" viewBox="0 0 411 387" fill="none" xmlns="http://www.w3.org/2000/svg">
<path d="M391.275 91.6818H389.157V33.6103C389.157 29.1965 388.288 24.826 386.6 20.7482C384.912 16.6704 382.439 12.9652 379.32 9.84422C376.201 6.72322 372.499 4.24751 368.425 2.55843C364.35 0.869359 359.983 2.08855e-06 355.572 0H232.635C223.728 -1.96832e-05 215.185 3.54103 208.887 9.84415C202.589 16.1473 199.051 24.6962 199.051 33.6101V352.195C199.051 361.109 202.589 369.658 208.887 375.961C215.185 382.264 223.728 385.805 232.635 385.805H355.572C364.479 385.805 373.022 382.264 379.32 375.961C385.618 369.658 389.157 361.109 389.157 352.195V133.018H391.275L391.275 91.6818Z" fill="#E6E6E6"/>
<path d="M382.008 33.8448V351.961C382.008 358.618 379.366 365.002 374.662 369.71C369.958 374.417 363.579 377.062 356.927 377.062H233.4C226.748 377.062 220.368 374.417 215.664 369.71C210.961 365.002 208.318 358.618 208.318 351.961V33.8448C208.318 27.1876 210.961 20.8032 215.664 16.0959C220.368 11.3886 226.748 8.74399 233.4 8.74387H248.385C247.649 10.5547 247.368 12.5189 247.568 14.4637C247.769 16.4084 248.443 18.2742 249.533 19.8968C250.623 21.5193 252.094 22.8491 253.818 23.7689C255.542 24.6888 257.465 25.1707 259.419 25.1721H329.848C331.802 25.1706 333.725 24.6888 335.449 23.7689C337.173 22.849 338.644 21.5193 339.734 19.8967C340.824 18.2742 341.498 16.4084 341.699 14.4637C341.899 12.5189 341.618 10.5547 340.882 8.74387H356.927C363.579 8.74399 369.958 11.3886 374.662 16.0959C379.366 20.8032 382.008 27.1876 382.008 33.8448Z" fill="white"/>
<path d="M239.984 38.2483C235.489 38.2483 231.177 40.0355 227.998 43.2168C224.82 46.3981 223.034 50.7129 223.034 55.2119C223.034 59.7109 224.82 64.0257 227.998 67.207C231.177 70.3883 235.489 72.1756 239.984 72.1756C244.48 72.1756 248.791 70.3884 251.97 67.2071C255.149 64.0258 256.935 59.711 256.935 55.212C256.935 50.7129 255.149 46.3982 251.97 43.2169C248.791 40.0356 244.48 38.2483 239.984 38.2483Z" fill="#E6E6E6"/>
<path d="M363.055 69.5252H274.065C272.941 69.5252 271.863 69.0784 271.068 68.283C270.274 67.4877 269.827 66.409 269.827 65.2842C269.827 64.1595 270.274 63.0808 271.068 62.2855C271.863 61.4901 272.941 61.0433 274.065 61.0433H363.055C364.179 61.0433 365.257 61.4901 366.052 62.2855C366.846 63.0808 367.293 64.1595 367.293 65.2842C367.293 66.409 366.846 67.4877 366.052 68.283C365.257 69.0784 364.179 69.5252 363.055 69.5252Z" fill="#E6E6E6"/>
<path d="M302.139 51.5013H274.065C272.941 51.5013 271.863 51.0545 271.068 50.2591C270.274 49.4638 269.827 48.3851 269.827 47.2604C269.827 46.1356 270.274 45.0569 271.068 44.2616C271.863 43.4663 272.941 43.0194 274.065 43.0194H302.139C303.263 43.0194 304.341 43.4663 305.136 44.2616C305.93 45.0569 306.377 46.1356 306.377 47.2604C306.377 48.3851 305.93 49.4638 305.136 50.2591C304.341 51.0545 303.263 51.5013 302.139 51.5013Z" fill="#E6E6E6"/>
<path d="M239.984 109.284C235.489 109.284 231.177 111.071 227.998 114.252C224.82 117.433 223.034 121.748 223.034 126.247C223.034 130.746 224.82 135.061 227.998 138.242C231.177 141.424 235.489 143.211 239.984 143.211C244.48 143.211 248.791 141.424 251.97 138.242C255.149 135.061 256.935 130.746 256.935 126.247C256.935 121.748 255.149 117.433 251.97 114.252C248.791 111.071 244.48 109.284 239.984 109.284Z" fill="#E6E6E6"/>
<path d="M363.055 140.56H274.065C272.941 140.56 271.863 140.114 271.068 139.318C270.274 138.523 269.827 137.444 269.827 136.319C269.827 135.195 270.274 134.116 271.068 133.321C271.863 132.525 272.941 132.079 274.065 132.079H363.055C364.179 132.079 365.257 132.525 366.052 133.321C366.846 134.116 367.293 135.195 367.293 136.319C367.293 137.444 366.846 138.523 366.052 139.318C365.257 140.114 364.179 140.56 363.055 140.56Z" fill="#E6E6E6"/>
<path d="M302.139 122.537H274.065C272.941 122.537 271.863 122.09 271.068 121.294C270.274 120.499 269.827 119.42 269.827 118.296C269.827 117.171 270.274 116.092 271.068 115.297C271.863 114.502 272.941 114.055 274.065 114.055H302.139C303.263 114.055 304.341 114.502 305.136 115.297C305.93 116.092 306.377 117.171 306.377 118.296C306.377 119.42 305.93 120.499 305.136 121.294C304.341 122.09 303.263 122.537 302.139 122.537Z" fill="#E6E6E6"/>
<path d="M239.984 251.354C235.489 251.354 231.177 253.141 227.998 256.323C224.82 259.504 223.034 263.819 223.034 268.318C223.034 272.817 224.82 277.132 227.998 280.313C231.177 283.494 235.489 285.281 239.984 285.281C244.48 285.281 248.791 283.494 251.97 280.313C255.149 277.132 256.935 272.817 256.935 268.318C256.935 263.819 255.149 259.504 251.97 256.323C248.791 253.141 244.48 251.354 239.984 251.354Z" fill="#E6E6E6"/>
<path d="M363.055 282.631H274.065C272.941 282.631 271.863 282.184 271.068 281.389C270.274 280.593 269.827 279.515 269.827 278.39C269.827 277.265 270.274 276.187 271.068 275.391C271.863 274.596 272.941 274.149 274.065 274.149H363.055C364.179 274.149 365.257 274.596 366.052 275.391C366.846 276.187 367.293 277.265 367.293 278.39C367.293 279.515 366.846 280.593 366.052 281.389C365.257 282.184 364.179 282.631 363.055 282.631Z" fill="#E6E6E6"/>
<path d="M302.139 264.607H274.065C272.941 264.607 271.863 264.16 271.068 263.365C270.274 262.57 269.827 261.491 269.827 260.366C269.827 259.241 270.274 258.163 271.068 257.367C271.863 256.572 272.941 256.125 274.065 256.125H302.139C303.263 256.125 304.341 256.572 305.136 257.367C305.93 258.163 306.377 259.241 306.377 260.366C306.377 261.491 305.93 262.57 305.136 263.365C304.341 264.16 303.263 264.607 302.139 264.607Z" fill="#E6E6E6"/>
<path d="M239.984 322.389C235.489 322.389 231.177 324.177 227.998 327.358C224.82 330.539 223.034 334.854 223.034 339.353C223.034 343.852 224.82 348.167 227.998 351.348C231.177 354.529 235.489 356.317 239.984 356.317C244.48 356.317 248.791 354.529 251.97 351.348C255.149 348.167 256.935 343.852 256.935 339.353C256.935 334.854 255.149 330.539 251.97 327.358C248.791 324.177 244.48 322.389 239.984 322.389Z" fill="#E6E6E6"/>
<path d="M363.055 353.666H274.065C272.941 353.666 271.863 353.219 271.068 352.424C270.274 351.629 269.827 350.55 269.827 349.425C269.827 348.301 270.274 347.222 271.068 346.427C271.863 345.631 272.941 345.184 274.065 345.184H363.055C364.179 345.184 365.257 345.631 366.052 346.427C366.846 347.222 367.293 348.301 367.293 349.425C367.293 350.55 366.846 351.629 366.052 352.424C365.257 353.219 364.179 353.666 363.055 353.666Z" fill="#E6E6E6"/>
<path d="M302.139 335.642H274.065C272.941 335.642 271.863 335.196 271.068 334.4C270.274 333.605 269.827 332.526 269.827 331.401C269.827 330.277 270.274 329.198 271.068 328.403C271.863 327.607 272.941 327.161 274.065 327.161H302.139C303.263 327.161 304.341 327.607 305.136 328.403C305.93 329.198 306.377 330.277 306.377 331.401C306.377 332.526 305.93 333.605 305.136 334.4C304.341 335.196 303.263 335.642 302.139 335.642Z" fill="#E6E6E6"/>
<path d="M397.396 238.101H192.93C190.613 238.099 188.391 237.176 186.753 235.537C185.114 233.897 184.193 231.674 184.19 229.355V163.62C184.193 161.301 185.114 159.078 186.753 157.438C188.391 155.799 190.613 154.876 192.93 154.874H397.396C399.713 154.876 401.935 155.799 403.574 157.438C405.212 159.078 406.134 161.301 406.136 163.62V229.355C406.134 231.674 405.212 233.897 403.574 235.537C401.935 237.176 399.713 238.099 397.396 238.101Z" fill="white"/>
<path d="M218.04 220.728C213.249 220.728 208.566 219.306 204.583 216.642C200.6 213.979 197.496 210.193 195.662 205.764C193.829 201.334 193.349 196.461 194.284 191.759C195.219 187.056 197.525 182.737 200.913 179.347C204.3 175.957 208.616 173.649 213.315 172.713C218.013 171.778 222.883 172.258 227.309 174.093C231.735 175.927 235.518 179.034 238.179 183.02C240.841 187.007 242.261 191.693 242.261 196.488C242.254 202.914 239.7 209.075 235.159 213.62C230.618 218.164 224.462 220.72 218.04 220.728ZM218.04 173.308C213.459 173.308 208.981 174.667 205.172 177.214C201.363 179.761 198.394 183.381 196.641 187.617C194.888 191.853 194.429 196.513 195.323 201.01C196.217 205.506 198.423 209.636 201.662 212.878C204.901 216.12 209.028 218.328 213.521 219.222C218.014 220.116 222.671 219.657 226.904 217.903C231.136 216.148 234.753 213.177 237.298 209.366C239.843 205.554 241.202 201.072 241.202 196.488C241.195 190.342 238.752 184.45 234.41 180.105C230.068 175.759 224.181 173.315 218.04 173.308Z" fill="#3F3D56"/>
<path d="M390.055 216.493H265.674C264.896 216.494 264.125 216.341 263.406 216.043C262.686 215.746 262.033 215.309 261.482 214.759C260.932 214.208 260.495 213.555 260.197 212.835C259.899 212.116 259.745 211.344 259.745 210.565C259.745 209.787 259.899 209.015 260.197 208.296C260.495 207.576 260.932 206.923 261.482 206.372C262.033 205.822 262.686 205.385 263.406 205.088C264.125 204.79 264.896 204.637 265.674 204.638H390.055C390.834 204.637 391.604 204.79 392.324 205.088C393.043 205.385 393.697 205.822 394.247 206.372C394.798 206.923 395.234 207.576 395.532 208.296C395.83 209.015 395.984 209.787 395.984 210.565C395.984 211.344 395.83 212.116 395.532 212.835C395.234 213.555 394.798 214.208 394.247 214.759C393.697 215.309 393.043 215.746 392.324 216.043C391.604 216.341 390.834 216.494 390.055 216.493Z" fill="#617AFF"/>
<path d="M304.913 191.301H265.674C264.896 191.302 264.125 191.149 263.406 190.851C262.686 190.554 262.033 190.117 261.482 189.567C260.932 189.016 260.495 188.363 260.197 187.643C259.899 186.924 259.745 186.152 259.745 185.374C259.745 184.595 259.899 183.823 260.197 183.104C260.495 182.384 260.932 181.731 261.482 181.18C262.033 180.63 262.686 180.193 263.406 179.896C264.125 179.598 264.896 179.445 265.674 179.446H304.913C305.692 179.445 306.462 179.598 307.182 179.896C307.901 180.193 308.555 180.63 309.105 181.18C309.656 181.731 310.092 182.384 310.39 183.104C310.689 183.823 310.842 184.595 310.842 185.374C310.842 186.152 310.689 186.924 310.39 187.643C310.092 188.363 309.656 189.016 309.105 189.567C308.555 190.117 307.901 190.554 307.182 190.851C306.462 191.149 305.692 191.302 304.913 191.301Z" fill="#617AFF"/>
<path d="M397.396 238.101H192.93C190.613 238.099 188.391 237.176 186.753 235.537C185.114 233.897 184.193 231.674 184.19 229.355V163.62C184.193 161.301 185.114 159.078 186.753 157.438C188.391 155.799 190.613 154.876 192.93 154.874H397.396C399.713 154.876 401.935 155.799 403.574 157.438C405.212 159.078 406.134 161.301 406.136 163.62V229.355C406.134 231.674 405.212 233.897 403.574 235.537C401.935 237.176 399.713 238.099 397.396 238.101ZM192.93 155.404C190.753 155.406 188.666 156.273 187.127 157.813C185.588 159.353 184.722 161.442 184.72 163.62V229.355C184.722 231.533 185.588 233.622 187.127 235.162C188.666 236.702 190.753 237.569 192.93 237.571H397.396C399.573 237.569 401.66 236.702 403.199 235.162C404.738 233.622 405.604 231.533 405.607 229.355V163.62C405.604 161.442 404.738 159.353 403.199 157.813C401.66 156.273 399.573 155.406 397.396 155.404H192.93Z" fill="#3F3D56"/>
<path d="M217.612 208.284C223.069 208.284 227.493 203.856 227.493 198.395C227.493 192.933 223.069 188.506 217.612 188.506C212.155 188.506 207.731 192.933 207.731 198.395C207.731 203.856 212.155 208.284 217.612 208.284Z" fill="#2F2E41"/>
<path d="M209.899 193.063C211.496 191.465 211.82 189.198 210.622 188C209.424 186.801 207.159 187.125 205.562 188.723C203.966 190.321 203.642 192.588 204.84 193.786C206.037 194.985 208.302 194.661 209.899 193.063Z" fill="#2F2E41"/>
<path d="M227.911 189.923C228.576 188.364 227.432 186.381 225.355 185.493C223.279 184.605 221.056 185.149 220.391 186.708C219.725 188.267 220.869 190.25 222.946 191.138C225.023 192.025 227.246 191.481 227.911 189.923Z" fill="#2F2E41"/>
<path d="M217.925 209.148C222.557 209.148 226.311 205.391 226.311 200.756C226.311 196.121 222.557 192.363 217.925 192.363C213.294 192.363 209.539 196.121 209.539 200.756C209.539 205.391 213.294 209.148 217.925 209.148Z" fill="#FFB8B8"/>
<path d="M209.113 195.477C211.03 196.799 213.304 197.502 215.632 197.493C214.801 198.069 213.856 198.458 212.861 198.633C215.956 199.298 219.154 199.316 222.256 198.686C222.945 198.576 223.61 198.347 224.222 198.01C224.527 197.84 224.793 197.607 225.002 197.327C225.211 197.047 225.359 196.726 225.436 196.386C225.642 195.207 224.725 194.137 223.771 193.415C222.312 192.327 220.628 191.578 218.844 191.221C217.059 190.864 215.217 190.908 213.452 191.351C212.275 191.588 211.205 192.194 210.395 193.08C209.646 194.006 209.425 195.435 210.138 196.389L209.113 195.477Z" fill="#2F2E41"/>
<path d="M94.1472 270.976C93.902 270.18 93.834 269.341 93.948 268.516C94.0621 267.691 94.3555 266.902 94.8075 266.203C95.2595 265.504 95.8591 264.912 96.5641 264.471C97.2692 264.029 98.0624 263.747 98.8881 263.645L126.079 231.847L132.421 238.511L105.337 269C105.416 270.399 104.98 271.779 104.11 272.878C103.241 273.977 101.999 274.718 100.619 274.962C99.24 275.205 97.8193 274.934 96.6265 274.2C95.4336 273.465 94.5515 272.318 94.1472 270.976Z" fill="#A0616A"/>
<path d="M117.233 236.812C117.206 236.47 117.252 236.127 117.369 235.805C117.486 235.482 117.671 235.189 117.912 234.945L126.312 226.42C127.346 225.003 128.899 224.054 130.63 223.782C132.362 223.509 134.131 223.935 135.55 224.966C136.968 225.997 137.92 227.549 138.196 229.281C138.473 231.014 138.051 232.785 137.024 234.207L131.439 244.839C131.279 245.143 131.056 245.408 130.785 245.617C130.514 245.827 130.201 245.975 129.867 246.053C129.534 246.13 129.187 246.135 128.851 246.066C128.516 245.997 128.199 245.857 127.922 245.655L118.203 238.546C117.926 238.344 117.696 238.084 117.529 237.785C117.362 237.486 117.261 237.154 117.233 236.812Z" fill="#617AFF"/>
<path d="M136.958 217.302C144.144 217.302 149.968 211.472 149.968 204.281C149.968 197.091 144.144 191.261 136.958 191.261C129.773 191.261 123.948 197.091 123.948 204.281C123.948 211.472 129.773 217.302 136.958 217.302Z" fill="#A0616A"/>
<path d="M129.884 262.545C129.626 262.353 129.409 262.109 129.248 261.83C129.087 261.55 128.986 261.241 128.949 260.921C128.05 253.396 126.741 245.926 125.028 238.544C124.27 235.227 124.741 231.748 126.353 228.752C127.966 225.756 130.61 223.448 133.795 222.257C136.98 221.066 140.489 221.072 143.67 222.275C146.85 223.478 149.486 225.796 151.088 228.798C156.204 238.408 156.595 251.602 156.525 256.828C156.518 257.386 156.314 257.923 155.951 258.347C155.588 258.77 155.087 259.052 154.537 259.143L131.71 262.989C131.577 263.011 131.442 263.022 131.307 263.022C130.794 263.022 130.294 262.855 129.884 262.545Z" fill="#2F2E41"/>
<path d="M179.168 220.151C179.103 220.437 179.06 220.728 179.041 221.021L156.286 234.158L150.755 230.972L144.859 238.697L154.103 245.29C154.849 245.823 155.749 246.098 156.665 246.076C157.582 246.054 158.467 245.734 159.187 245.166L182.651 226.641C183.71 227.033 184.863 227.093 185.957 226.814C187.051 226.534 188.034 225.928 188.775 225.075C189.517 224.223 189.981 223.165 190.107 222.042C190.233 220.919 190.014 219.784 189.48 218.789C188.945 217.793 188.121 216.984 187.116 216.469C186.111 215.954 184.973 215.757 183.853 215.905C182.734 216.053 181.686 216.539 180.849 217.297C180.012 218.056 179.426 219.051 179.168 220.151Z" fill="#A0616A"/>
<path d="M155.525 234.78L148.171 244.319C147.962 244.591 147.697 244.814 147.394 244.973C147.09 245.133 146.756 245.225 146.414 245.244C146.072 245.263 145.73 245.207 145.412 245.082C145.093 244.956 144.805 244.764 144.567 244.517L136.242 235.865C134.86 234.785 133.963 233.202 133.747 231.461C133.53 229.721 134.012 227.966 135.086 226.58C136.161 225.195 137.741 224.293 139.479 224.071C141.218 223.849 142.973 224.327 144.36 225.398L154.802 231.241C155.101 231.409 155.361 231.639 155.563 231.915C155.765 232.192 155.905 232.509 155.974 232.845C156.042 233.181 156.038 233.528 155.96 233.862C155.883 234.196 155.735 234.509 155.525 234.78Z" fill="#617AFF"/>
<path d="M166.991 379.796L173.485 379.795L175.013 354.808L166.99 354.728L166.991 379.796Z" fill="#A0616A"/>
<path d="M165.334 377.674L178.123 377.673H178.124C179.194 377.673 180.254 377.884 181.243 378.294C182.232 378.704 183.13 379.305 183.887 380.062C184.644 380.82 185.244 381.719 185.654 382.708C186.063 383.698 186.274 384.759 186.274 385.83V386.095L165.335 386.096L165.334 377.674Z" fill="#2F2E41"/>
<path d="M105.015 379.796L111.509 379.795L114.599 354.727L105.014 354.728L105.015 379.796Z" fill="#A0616A"/>
<path d="M103.359 377.674L116.148 377.673H116.148C117.219 377.673 118.278 377.884 119.267 378.294C120.256 378.704 121.155 379.305 121.911 380.062C122.668 380.82 123.269 381.719 123.678 382.708C124.088 383.698 124.299 384.759 124.299 385.83V386.095L103.359 386.096L103.359 377.674Z" fill="#2F2E41"/>
<path d="M112.093 366.777L104.034 365.725C103.697 365.681 103.373 365.565 103.085 365.386C102.796 365.207 102.549 364.968 102.361 364.685C102.172 364.403 102.046 364.083 101.99 363.748C101.935 363.412 101.952 363.069 102.04 362.741L113.796 304.926C114.965 299.313 115.774 293.631 116.217 287.915C116.561 283.264 117.921 276.687 122.453 271.77C124.296 269.752 126.016 267.625 127.604 265.4L131.163 260.469L154.868 256.695L154.885 256.988C155.909 275.84 160.801 294.278 169.258 311.154C173.062 318.744 175.245 327.044 175.669 335.524L177.013 361.74C177.029 362.072 176.977 362.404 176.858 362.714C176.739 363.025 176.557 363.307 176.323 363.543C176.089 363.78 175.808 363.966 175.498 364.086C175.188 364.207 174.856 364.261 174.524 364.244L166.819 363.894C166.297 363.869 165.797 363.674 165.397 363.338C164.996 363.001 164.717 362.543 164.602 362.033L158.169 333.311C158.111 333.055 158 332.814 157.843 332.603L137.656 305.666C137.512 305.474 137.318 305.325 137.096 305.234C136.874 305.144 136.631 305.115 136.394 305.152C136.157 305.189 135.934 305.289 135.75 305.443C135.565 305.596 135.426 305.797 135.346 306.024L114.651 365.199C114.486 365.665 114.181 366.069 113.778 366.355C113.374 366.641 112.893 366.795 112.398 366.796C112.296 366.796 112.194 366.79 112.093 366.777Z" fill="#2F2E41"/>
<path d="M122.573 195.244C123.606 192.109 124.369 188.891 124.853 185.625C125.005 183.724 124.519 181.678 123.135 180.366C120.546 177.911 116.147 179.081 113.439 181.404C109.526 184.762 107.574 189.922 106.836 195.028C106.099 200.134 106.423 205.326 106.246 210.481C106.068 215.637 105.331 220.938 102.705 225.377C100.078 229.816 95.2045 233.224 90.0635 232.846C87.9885 232.734 86.0181 231.898 84.4944 230.484C83.7464 229.772 83.1799 228.891 82.8425 227.914C82.505 226.938 82.4064 225.895 82.5549 224.872C79.9273 229.581 81.2593 235.963 85.1786 239.664C89.0979 243.366 95.1265 244.412 100.279 242.832C105.431 241.251 109.672 237.289 112.205 232.528C114.738 227.768 115.666 222.269 115.532 216.877C115.429 212.737 114.725 208.563 115.424 204.481C116.123 200.399 118.676 196.254 122.702 195.293L122.573 195.244Z" fill="#2F2E41"/>
<path d="M140.65 200.611C141.336 202.906 143.961 204.32 146.323 203.932C148.684 203.544 150.626 201.598 151.344 199.313C151.992 196.98 151.727 194.486 150.601 192.342C149.981 191.057 149.113 189.906 148.048 188.957C146.983 188.008 145.742 187.278 144.394 186.809C143.04 186.36 141.597 186.243 140.187 186.468C138.778 186.694 137.443 187.255 136.296 188.104C136.174 187.589 135.916 187.115 135.551 186.732C135.185 186.35 134.724 186.071 134.215 185.926C133.189 185.649 132.108 185.665 131.091 185.972C128.162 186.807 125.624 188.655 123.928 191.187C122.254 193.711 121.146 196.568 120.682 199.562C119.883 204.051 120.177 208.957 122.697 212.756C125.216 216.556 130.371 218.799 134.552 216.988C134.813 215.654 134.195 214.31 133.481 213.155C132.766 211.999 131.919 210.873 131.645 209.541C131.37 208.21 131.896 206.582 133.183 206.146C134.281 205.775 135.451 206.377 136.607 206.449C137.264 206.491 137.92 206.358 138.51 206.066C139.099 205.773 139.601 205.331 139.966 204.782C140.331 204.234 140.545 203.6 140.587 202.943C140.63 202.285 140.498 201.629 140.207 201.038L140.65 200.611Z" fill="#2F2E41"/>
<path d="M410.553 386.34H0.446739C0.328257 386.34 0.214626 386.284 0.130847 386.185C0.0470667 386.085 0 385.95 0 385.81C0 385.669 0.0470667 385.534 0.130847 385.435C0.214626 385.336 0.328257 385.28 0.446739 385.28H410.553C410.672 385.28 410.785 385.336 410.869 385.435C410.953 385.534 411 385.669 411 385.81C411 385.95 410.953 386.085 410.869 386.185C410.785 386.284 410.672 386.34 410.553 386.34Z" fill="#CCCCCC"/>
</svg>
